<?xml version="1.0" encoding="UTF-8"?><svg id="a" xmlns="http://www.w3.org/2000/svg" viewBox="0 0 143.77 237.01"><defs><style>.b{stroke-width:5px;}.b,.c,.d,.e,.f{stroke-miterlimit:10;}.b,.d{fill:#58661b;}.b,.d,.f{stroke:#343a0e;}.c{fill:#cda523;stroke:#000;}.e{fill:none;stroke:#7f5807;}.f{fill:#343a0e;}</style></defs><rect class="d" x="67.64" y="106.21" width="7.71" height="125.87"/><path class="c" d="M72.8,111.97c9.06-.86,14.2-12.72,15.7-19.34.98-4.32,1.5-11.29-1.1-12.48-2.67-1.22-7.39,4.2-7.82,3.77-.8-.8,16.05-20.46,14.37-24.22-2.76-6.21-16.4,5.65-17.13,5.65-1.83,0,6.28-6.06,10.72-15.25,2.39-4.95,5.57-14.93,3.65-16.18-2.86-1.87-10.29,8.51-11.19,7.63-.88-.86,6-5.6,4.87-16.4-.3-2.87,4.04-5.31,1-7.15-7.26-4.41,1.31-10.88-.6-14.25-1.91-3.36-8.67-4.27-10.7-2-2.36,2.64-1.4,7.42-3.9,9.74-1.78,1.66-1.18.62-2.98,2.29-1.94,1.79.6,5.62-.34,13.2-.32,2.57-1.17,3.92-2.66,4.66-2.58,1.27-3.45-.94-6.93-1.39-3.1-.4-1.82,16.47,2.71,23.18,1.71,2.53-4.51.75-6.38,3.05-4.54,5.59,6.1,17.74,2.53,21.01-1.78,1.63-4.81-.37-7.24,1.4-3.58,2.6-1.35,13.56,2.92,20.34.57.91,3.39,5.26,8.92,8.71,3.41,2.13,7.17,4.47,11.59,4.05Z"/><path class="e" d="M75.56,14.42c.15.19.74.88,1.46.83.92-.06,1.9-1.31,1.78-3.1"/><path class="e" d="M74.14,21.85c2.5,1.02,3.61,3.14,3.1,4.48-.38,1.01-1.62,1.71-1.89,1.5-.41-.34,1.32-3.31,3.26-5.47.67-.75,1.3-1.32,1.75-1.7"/><path class="e" d="M67.98,37.12c1.1,1.15,3.25,3.75,3.68,7.51.11,1,.09,1.91,0,2.7"/><path class="e" d="M75.98,42.86c-1.25.89-4.65,3.57-6.07,8.37-.76,2.58-.68,4.84-.5,6.28"/><path class="e" d="M62.8,64.41c1.1,1.15,5.45,7.33,5.88,11.1.11,1,.09,1.91,0,2.7"/><path class="e" d="M74.54,71.13c-2.84.7-6.2,6.17-7.62,10.97-.76,2.58,3.55,4.29,3.73,5.73"/><path class="e" d="M76.55,90.56c-3.51,2.67-4.71,5.15-5.15,6.97-.27,1.12-.38,2.61-1.57,3.87-1.03,1.09-2.4,1.49-3.4,1.66"/><path class="e" d="M61.33,88.81c.97.72,2.35,1.83,3.87,3.37,2.21,2.25,3.31,3.37,3.44,4.8.22,2.57-2.56,3.5-2.58,5.86-.01,1.4.95,3.4,5.53,5.87"/><path class="b" d="M63.45,233.48c-7.5,1.84-27.47-69.81-54.81-83.4-1.73-.86-6.42-2.95-6.13-4.77.49-3.02,14.76-5.46,26.88-1.13,13.4,4.78,20.24,16.43,23.85,22.58,3.01,5.13,5.3,13.75,9.87,30.98,1.92,7.23,3.36,13.55,3.06,21.79-.24,6.52-.48,13.41-2.72,13.96Z"/><path class="d" d="M44.87,134.84c-1.14,1.65.07,3.92,4.17,12,7.03,13.85,6.12,15.74,6.81,18.21,1.26,4.52,2.29,4.84,4.09,11.23,1.25,4.43,1.31,7.11,3,12.6.9,2.91.96,6.92,2.04,12.26,1.73,8.52,2.14,22.89,2.66,23.32,1.25,1.03,2.42-14,2.59-15.92.56-6.38-.71-9.07-1.11-16.17-.35-6.23.55-5.72-.09-9.53-.59-3.52-1.4-4.22-4.51-11.83-2.12-5.18-3.55-8.66-4.94-13.53-.61-2.13-.87-3.34-2.21-8.09-.94-3.32-1.42-5.02-2.04-6.89-1.44-4.37-1.67-4.15-2.13-6.3-.23-1.1-.26-1.56-.68-2.04-1.55-1.76-6.22-1.39-7.66.68Z"/><path class="c" d="M54.49,134.07c5.66-3.99,4.58-13.78,3.06-18.72-.99-3.23-3.28-8.03-5.45-7.83-2.22.2-3.3,5.57-3.74,5.45-.83-.23,2.87-19.59.34-21.45-4.17-3.06-8.71,9.94-9.19,10.21-1.21.69,1.86-6.38,1.32-14.13-.29-4.18-1.96-11.98-3.7-12.08-2.59-.16-3.59,9.52-4.51,9.28-.9-.23,1.85-5.97-2.98-12.68-1.28-1.78.67-5.04-2.04-5.11-6.47-.17-3.24-7.69-5.79-9.19-2.53-1.5-7.35.45-7.83,2.72-.56,2.63,1.88,5.43,1.11,7.91-.55,1.77-.54.86-1.11,2.64-.61,1.92,2.52,3.49,4.77,8.85.76,1.82.71,3.04,0,4.09-1.23,1.81-2.64.68-5.11,1.7-2.2.91,5.02,11.57,10.55,14.3,2.08,1.03-2.7,2.2-3.06,4.43-.89,5.41,10.74,9.42,9.62,12.94-.56,1.75-3.32,1.58-4.26,3.66-1.38,3.07,4.23,9.48,9.62,12.34.72.38,4.23,2.19,9.19,2.38,3.06.12,6.43.25,9.19-1.7Z"/><path class="e" d="M19.43,68.54c.17.07.82.3,1.28,0,.59-.39.76-1.58,0-2.72"/><path class="e" d="M21.3,73.99c2.04-.27,3.57.71,3.74,1.79.13.81-.43,1.75-.68,1.7-.4-.07-.38-2.69.09-4.85.16-.75.36-1.36.51-1.79"/><path class="e" d="M23,86.41c1.17.34,3.57,1.25,5.28,3.57.45.62.78,1.23,1.02,1.79"/><path class="e" d="M30.46,87.18c-.49,1.07-1.73,4.12-.85,7.83.47,1.99,1.38,3.46,2.04,4.34"/><path class="e" d="M29.89,106.41c1.17.34,6.37,2.78,8.08,5.11.45.62.78,1.23,1.02,1.79"/><path class="e" d="M40.19,106.41c-1.62,1.54-1.76,6.42-.89,10.13.47,1.99,3.97,1.49,4.63,2.38"/><path class="e" d="M48.87,118.5c-1.31,3.09-1.17,5.19-.77,6.55.25.84.74,1.87.43,3.15-.27,1.11-1.02,1.89-1.62,2.38"/><path class="e" d="M38.15,123.1c.91.11,2.25.32,3.83.77,2.31.65,3.47.98,4.09,1.87,1.12,1.62-.37,3.28.51,4.85.52.93,1.91,1.89,5.87,1.79"/><path class="b" d="M80.32,233.7c7.5,1.84,27.47-69.81,54.81-83.4,1.73-.86,6.42-2.95,6.13-4.77-.49-3.02-14.76-5.46-26.88-1.13-13.4,4.78-20.24,16.43-23.85,22.58-3.01,5.13-5.3,13.75-9.87,30.98-1.92,7.23-3.36,13.55-3.06,21.79.24,6.52.48,13.41,2.72,13.96Z"/><path class="d" d="M98.9,135.05c1.14,1.65-.07,3.92-4.17,12-7.03,13.85-6.12,15.74-6.81,18.21-1.26,4.52-2.29,4.84-4.09,11.23-1.25,4.43-.65,5.68-2.34,11.18-.9,2.91-2.15,7.79-3.23,13.12-1.73,8.52-3.7,12.47-3.62,13.14,2.92,22.26-.94-3.27-1.11-5.19-.56-6.38.71-9.07,1.11-16.17.35-6.23-.55-5.72.09-9.53.59-3.52,1.4-4.22,4.51-11.83,2.12-5.18,3.55-8.66,4.94-13.53.61-2.13.87-3.34,2.21-8.09.94-3.32,1.42-5.02,2.04-6.89,1.44-4.37,1.67-4.15,2.13-6.3.23-1.1.26-1.56.68-2.04,1.55-1.76,6.22-1.39,7.66.68Z"/><path class="c" d="M89.28,134.29c-5.66-3.99-4.58-13.78-3.06-18.72.99-3.23,3.28-8.03,5.45-7.83,2.22.2,3.3,5.57,3.74,5.45.83-.23-2.87-19.59-.34-21.45,4.17-3.06,8.71,9.94,9.19,10.21,1.21.69-1.86-6.38-1.32-14.13.29-4.18,1.96-11.98,3.7-12.08,2.59-.16,3.59,9.52,4.51,9.28.9-.23-1.85-5.97,2.98-12.68,1.28-1.78-.67-5.04,2.04-5.11,6.47-.17,3.24-7.69,5.79-9.19,2.53-1.5,7.35.45,7.83,2.72.56,2.63-1.88,5.43-1.11,7.91.55,1.77.54.86,1.11,2.64.61,1.92-2.52,3.49-4.77,8.85-.76,1.82-.71,3.04,0,4.09,1.23,1.81,2.64.68,5.11,1.7,2.2.91-5.02,11.57-10.55,14.3-2.08,1.03,2.7,2.2,3.06,4.43.89,5.41-10.74,9.42-9.62,12.94.56,1.75,3.32,1.58,4.26,3.66,1.38,3.07-4.23,9.48-9.62,12.34-.72.38-4.23,2.19-9.19,2.38-3.06.12-6.43.25-9.19-1.7Z"/><path class="e" d="M124.34,68.76c-.17.07-.82.3-1.28,0-.59-.39-.76-1.58,0-2.72"/><path class="e" d="M122.47,74.2c-2.04-.27-3.57.71-3.74,1.79-.13.81.43,1.75.68,1.7.4-.07.38-2.69-.09-4.85-.16-.75-.36-1.36-.51-1.79"/><path class="e" d="M120.77,86.63c-1.17.34-3.57,1.25-5.28,3.57-.45.62-.78,1.23-1.02,1.79"/><path class="e" d="M113.32,87.4c.49,1.07,1.73,4.12.85,7.83-.47,1.99-1.38,3.46-2.04,4.34"/><path class="e" d="M113.88,106.63c-1.17.34-6.37,2.78-8.08,5.11-.45.62-.78,1.23-1.02,1.79"/><path class="e" d="M103.58,106.63c1.62,1.54,1.76,6.42.89,10.13-.47,1.99-3.97,1.49-4.63,2.38"/><path class="e" d="M94.9,118.71c1.31,3.09,1.17,5.19.77,6.55-.25.84-.74,1.87-.43,3.15.27,1.11,1.02,1.89,1.62,2.38"/><path class="e" d="M105.62,123.31c-.91.11-2.25.32-3.83.77-2.31.65-3.47.98-4.09,1.87-1.12,1.62.37,3.28-.51,4.85-.52.93-1.91,1.89-5.87,1.79"/><path class="f" d="M75.94,236.51h-8.71c-9.22-1.32-4.43-1.98-4.43-4.43h0c0-2.44,1.98-4.43,4.43-4.43h8.71c2.44,0,4.43,1.98,4.43,4.43h0c0,2.44,8.02,3.19-4.43,4.43Z"/></svg>